<?xml version="1.0" encoding="UTF-8" standalone="no"?>
<svg
   xmlns:dc="http://purl.org/dc/elements/1.1/"
   xmlns:cc="http://creativecommons.org/ns#"
   xmlns:rdf="http://www.w3.org/1999/02/22-rdf-syntax-ns#"
   xmlns:svg="http://www.w3.org/2000/svg"
   xmlns="http://www.w3.org/2000/svg"
   xmlns:sodipodi="http://sodipodi.sourceforge.net/DTD/sodipodi-0.dtd"
   xmlns:inkscape="http://www.inkscape.org/namespaces/inkscape"
   sodipodi:docname="abstract circle.svg"
   inkscape:version="1.0 (4035a4fb49, 2020-05-01)"
   id="svg895"
   version="1.1"
   viewBox="0 0 591.01636 590.96436"
   height="590.96436mm"
   width="591.01636mm">
  <defs
     id="defs889">
    <inkscape:path-effect
       strokepath-nodetypes="csc"
       scale_y_rel="false"
       prop_scale="1"
       strokepath="m 0,0 c -1903.3208,-300.88106 1433.7549,81.077892 -402.84938,450.75346 -83.87971,16.88348 118.75893,-275.52622 -14.48089,-287.61214"
       endpoint_spacing_variation="0;1"
       endpoint_edge_variation="0;1"
       startpoint_spacing_variation="0;1"
       startpoint_edge_variation="0;1"
       count="75"
       lpeversion="1"
       is_visible="true"
       id="path-effect1720"
       effect="curvestitching" />
    <inkscape:path-effect
       scale_y_rel="false"
       prop_scale="1"
       strokepath="M 0,0 H 1"
       endpoint_spacing_variation="0;1"
       endpoint_edge_variation="0;1"
       startpoint_spacing_variation="0;1"
       startpoint_edge_variation="0;1"
       count="5"
       lpeversion="1"
       is_visible="true"
       id="path-effect1711"
       effect="curvestitching" />
    <inkscape:path-effect
       strokepath-nodetypes="cssssc"
       scale_y_rel="false"
       prop_scale="1"
       strokepath="M 105.51801,139.19397 C 214.25808,133.1733 139.44574,269.94791 0.09506734,277.21699 -112.52972,283.09195 -281.5852,162.58961 -318.46295,140.1399 -383.38663,100.61693 -219.45519,403.27966 -60.571953,462.36278 45.496756,501.80603 148.07111,297.87163 183.3844,307.43527 226.40309,319.08571 -228.99178,42.51754 -148.67094,139.19397"
       endpoint_spacing_variation="0;1"
       endpoint_edge_variation="0;1"
       startpoint_spacing_variation="0;1"
       startpoint_edge_variation="0;1"
       count="75"
       lpeversion="1"
       is_visible="true"
       id="path-effect1709"
       effect="curvestitching" />
    <inkscape:path-effect
       scale_y_rel="false"
       prop_scale="1"
       strokepath="M 0,0 H 0.26458333"
       endpoint_spacing_variation="91.9;1"
       endpoint_edge_variation="0;1"
       startpoint_spacing_variation="0;1"
       startpoint_edge_variation="0;1"
       count="100"
       lpeversion="1"
       is_visible="true"
       id="path-effect1465"
       effect="curvestitching" />
  </defs>
  <sodipodi:namedview
     inkscape:window-maximized="1"
     inkscape:window-y="-11"
     inkscape:window-x="-11"
     inkscape:window-height="986"
     inkscape:window-width="1920"
     showborder="false"
     showgrid="false"
     inkscape:document-rotation="0"
     inkscape:current-layer="layer1"
     inkscape:document-units="px"
     inkscape:cy="920.07617"
     inkscape:cx="34.888896"
     inkscape:zoom="0.125"
     inkscape:pageshadow="2"
     inkscape:pageopacity="0.0"
     borderopacity="1.0"
     bordercolor="#666666"
     pagecolor="#ffffff"
     id="base" />
  <metadata
     id="metadata892">
    <rdf:RDF>
      <cc:Work
         rdf:about="">
        <dc:format>image/svg+xml</dc:format>
        <dc:type
           rdf:resource="http://purl.org/dc/dcmitype/StillImage" />
        <dc:title></dc:title>
      </cc:Work>
    </rdf:RDF>
  </metadata>
  <g
     transform="translate(508.78927,151.7981)"
     id="layer1"
     inkscape:groupmode="layer"
     inkscape:label="Layer 1">
    <path
       d="M -73.067254,-27.793472 C -296.15944,-328.67453 94.986137,53.28442 -120.28607,422.95999 c -9.83171,16.88348 13.91998,-275.52622 -1.69733,-287.61214 m 62.825128,-150.69069 c -196.759768,-318.64055 160.514222,94.976255 -85.100738,445.1559 -11.2175,15.99308 37.13696,-273.36624 22.60472,-286.72748 M -46.533295,-1.8552067 C -215.48644,-335.85672 105.18693,106.23988 -168.69394,434.58062 c -12.50844,14.99568 59.9702,-269.27917 46.63513,-283.81116 M -35.178222,12.597189 C -175.01659,-334.30272 106.58184,132.9704 -193.48313,437.24964 c -13.70429,13.89675 82.35639,-263.29511 70.32122,-278.88802 M -25.096478,27.947293 C -134.70872,-329.3153 105.63418,159.69433 -218.4903,437.7986 c -14.80312,12.70132 104.20405,-255.43582 93.56089,-271.97417 M -16.308702,44.126192 C -94.810506,-320.89349 102.42839,186.28002 -243.55113,436.20905 -259.35239,447.62357 -118.15707,190.48298 -127.32794,173.1202 M -8.8505611,61.056852 C -55.61098,-309.05869 97.040969,212.59154 -268.47683,432.47574 -285.17042,442.51808 -122.6937,198.27208 -130.32488,180.2108 M -2.7688732,78.649083 C -17.429917,-293.86853 89.542565,238.48603 -293.06045,426.61486 -310.53434,435.2069 -127.85037,205.68733 -133.88814,187.05751 M 1.8836118,96.796182 C 19.396577,-275.42616 80.00068,263.81192 -317.08537,418.66949 -335.22072,425.742 -133.58122,212.68631 -137.98593,193.62076 M 5.0542398,115.37362 C 54.532659,-253.88379 68.482872,288.40825 -340.33515,408.71174 c -18.67116,5.49439 200.49481,-189.48471 197.7487,-208.8516 M 6.6965714,134.23995 C 87.659603,-229.44024 55.059974,312.10514 -362.60343,396.84126 -381.67857,400.71125 -146.582,225.26784 -147.65759,205.73443 M 6.7758021,153.23991 C 118.49073,-202.33245 39.808952,334.72541 -383.70285,383.18025 -403.04509,385.39323 -153.76071,230.76741 -153.16669,211.2017 M 5.2727515,172.20914 C 146.78242,-172.82233 22.815011,356.08711 -403.47145,367.86565 -422.94041,368.40359 -161.3313,235.68461 -159.08031,216.21961 M 2.1858841,190.98012 C 172.33962,-141.18056 4.1726569,376.00659 -421.77604,351.03963 -441.22957,349.89936 -169.24901,239.97835 -165.36417,220.74565 M -2.4688919,209.38828 C 195.01537,-107.66966 -16.014409,394.30181 -438.51182,332.83949 c -19.29591,-2.80705 261.04235,-89.23198 266.52868,-108.10202 m 163.3225439,2.54027 C 214.7042,-72.52821 -37.634539,410.79525 -453.59854,313.38839 c -18.99752,-4.44867 267.64992,-66.85762 274.69718,-85.23527 m 162.553931,16.35279 C 231.33045,-35.9582 -60.570381,425.31644 -466.97358,292.78788 c -18.56087,-6.05273 272.33095,-44.08137 280.89116,-61.83656 m 160.599943,29.99522 C 244.83255,1.8833994 -84.701889,437.70351 -478.58265,271.11285 c -17.98896,-7.60837 275.07484,-21.0201 285.09297,-38.02129 M -36.020415,276.491 C 255.14456,40.888139 -109.90985,447.80386 -488.36886,248.40954 c -17.28462,-9.10655 275.86846,2.23762 287.28227,-13.87534 m 153.192292,56.48024 C 262.16304,80.894949 -136.01519,455.46033 -496.24405,224.75604 c -16.45204,-10.53652 274.68965,25.57353 287.42599,10.4842 M -60.873074,304.2786 C 265.75141,121.24754 -162.50991,460.54733 -502.055,200.54035 c -15.50739,-11.8748 271.56137,48.60487 285.52137,34.65776 m 141.682007,81.06983 C 265.91142,161.72024 -189.19482,463.148 -505.77573,175.91307 c -14.45859,-13.11834 266.52284,71.22422 281.59938,58.5269 m 134.415138,92.54791 C 262.64159,202.13717 -215.93836,463.36052 -507.38747,150.99605 c -13.3108,-14.26602 259.59851,93.35436 275.67893,82.0044 m 126.17384,103.42578 c 361.47077,-94.15228 -137.07512,124.84754 -401.33418,-210.48636 -12.06899,-15.31507 250.8103,114.88971 267.77631,104.97344 m 116.99274,113.64115 C 245.8031,281.86117 -269.0758,456.96803 -504.20693,100.92169 -514.94562,84.66067 -264.0186,236.62015 -246.29055,228.21154 m 106.91702,123.11919 c 371.65426,-30.7379 -155.82364,99.18582 -360.03269,-275.190391 -9.32645,-17.098165 227.78013,155.627431 246.14213,148.787111 m 96.00645,131.7771 c 372.70616,1.43445 -163.56925,85.28349 -335.23827,-304.895787 -7.8403,-17.819908 213.65743,174.509507 232.52184,169.284197 m 84.33749,139.52948 c 371.07065,33.53915 -170.17213,70.82718 -307.89696,-332.477676 -6.29003,-18.4193679 197.91998,192.172786 217.15305,188.595056 m 72.00339,146.29429 C 172.41362,428.33125 -369.97705,418.97009 -472.6054,5.3609411 -477.29255,-13.529034 -291.90951,213.81146 -272.44253,211.89995 m 59.11218,151.99839 c 359.93677,96.44529 -179.8278,40.72469 -246.4929,-380.243201 -3.04467,-19.226057 162.13839,223.190471 181.70467,222.950561 m 45.78275,156.58204 c 350.59961,126.74477 -182.83622,25.30159 -212.98194,-399.985091 -1.37678,-19.4233 142.4194,236.262691 161.95129,237.687461 m 32.13964,160.00174 c 338.880956,155.9864 -184.60874,9.76693 -178.00292,-416.740619 0.30169,-19.479059 121.72078,247.564379 141.08599,250.635789 m 18.30722,162.231 C 55.046127,541.01028 -454.96547,351.23057 -411.7002,-73.380387 -409.72423,-92.772826 -311.47558,183.641 -292.40798,188.33117 m 4.40387,163.25894 c 308.696272,210.61345 -184.37748,-21.27752 -104.85628,-440.890484 3.63182,-19.164176 78.10342,264.586084 96.74347,270.858424 m -9.46286,163.0871 c 290.393634,235.72412 -182.32993,-36.62546 -67.24369,-448.18347 5.25611,-18.7963 55.51178,270.23199 73.59452,278.04216 m -23.19992,161.72444 c 270.020309,259.21268 -178.95463,-51.7573 -29.24925,-452.26534 6.83721,-18.29163 32.58017,273.94567 49.97494,283.24216 m -36.73072,159.1814 c 247.591638,280.97081 -174.2118,-66.59996 8.94894,-453.12892 8.36515,-17.6532 9.41136,275.71667 25.98544,286.44088 m -49.99539,155.46318 c 223.0922,300.88106 -168.0534,-81.0779 47.21882,-450.75346 9.83171,-16.88348 -13.91999,275.52622 1.69733,287.61214 M -367.40389,302.711 c 196.75978,318.64055 -160.51423,-94.97625 85.10074,-445.15589 11.2175,-15.99308 -37.13696,273.36624 -22.60472,286.72748 m -75.121,144.94078 c 168.95316,334.00152 -151.72023,-108.09508 122.16065,-436.43583 12.50843,-14.99567 -59.9702,269.27917 -46.63513,283.81117 m -86.88059,138.17227 c 139.83838,346.89991 -141.76007,-120.37322 158.30491,-424.65245 13.70429,-13.89676 -82.35639,263.2951 -70.32122,278.88802 m -98.06543,130.41432 c 109.61226,357.2626 -130.73067,-131.74704 193.39381,-409.85131 14.80312,-12.70132 -104.20405,255.43582 -93.56088,271.97417 m -108.62071,121.69824 c 78.50182,365.01969 -118.73709,-142.15383 227.24242,-392.08285 15.80126,-11.41453 -125.39405,245.726061 -116.22318,263.08885 M -417.7116,226.31131 c 46.76044,370.11555 -105.89154,-151.534688 259.62626,-371.41889 16.6936,-10.04234 -145.78313,234.203661 -138.15194,252.26494 m -127.55601,101.56172 c 14.66106,372.51762 -92.31144,-159.836947 290.29157,-347.96578 17.47389,-8.59204 -165.21007,220.927539 -159.1723,239.55736 m -135.77175,90.26133 c -17.51295,372.22234 -78.11708,-167.015748 318.96898,-321.87332 18.135345,-7.07251 -183.50415,205.983184 -179.09944,225.048736 M -431.6164,171.99455 c -49.4784,369.25742 -63.42864,-173.0346347 345.38938,-293.33813 18.67116,-5.49439 -200.4948,189.484715 -197.74869,208.8516 m -149.28302,65.62019 C -514.22175,516.80842 -481.62214,-24.736971 -63.958732,-109.4731 -44.883594,-113.34309 -279.98016,62.100322 -278.90457,81.633737 M -433.33796,134.12826 C -545.05288,489.70063 -466.37112,-47.35724 -42.859317,-95.81209 -23.517077,-98.025073 -272.80146,56.60075 -273.39548,76.166465 M -431.83491,115.15903 C -573.34456,460.19051 -449.37718,-68.718938 -23.090714,-80.497497 -3.6217528,-81.035434 -265.23086,51.683558 -267.48185,71.148554 M -428.74804,96.388052 C -598.90177,428.54874 -430.73483,-88.638427 -4.7861272,-63.671477 14.667408,-62.531207 -257.31315,47.389815 -261.19799,66.622509 M -424.09327,77.979895 C -621.57752,395.03784 -410.54776,-106.93364 11.949652,-45.471335 31.245563,-42.664284 -249.09269,43.760653 -254.57902,62.630692 M -417.90156,60.090434 C -641.26635,359.89639 -388.92763,-123.42709 27.036376,-26.02024 46.033899,-21.571563 -240.61354,40.837396 -247.6608,59.21504 M -410.21473,42.862263 C -657.8926,323.32638 -365.99179,-137.94828 40.411419,-5.4197249 58.97229,0.63299871 -231.91953,38.661658 -240.47974,56.416846 M -401.07968,26.421629 C -671.3947,285.48478 -341.86028,-150.33534 52.020486,16.2553 70.009444,23.863675 -223.05436,37.27541 -233.07248,54.276607 M -390.54175,10.877169 C -681.70671,246.48005 -316.65232,-160.43569 61.806694,38.958607 79.091324,48.065161 -214.06176,36.721008 -225.47557,52.833967 M -378.66787,-3.6462668 C -688.72519,206.47324 -290.54698,-168.09217 69.681894,62.612115 86.133934,73.148629 -205.00776,37.038591 -217.7441,52.127923 M -365.68909,-16.910429 C -692.31357,166.12064 -264.05226,-173.17917 75.492844,86.827801 91.000233,98.7026 -196.06853,38.222948 -210.02854,52.170057 m -141.682,-81.069828 C -692.47358,125.64795 -237.36735,-175.77984 79.213572,111.45509 93.672162,124.57342 -187.30927,40.230872 -202.38581,52.928196 M -336.80095,-39.619713 C -689.20375,85.231017 -210.62381,-175.99235 80.825316,136.3721 94.13611,150.63812 -178.7732,43.01775 -194.85362,54.367717 M -321.02746,-49.058064 C -682.49823,45.094234 -183.95235,-173.9056 80.306723,161.42829 92.375718,176.74335 -170.50358,46.538582 -187.4696,56.454851 M -304.46233,-57.186287 C -672.36526,5.5070115 -157.48637,-169.59986 77.644774,186.44646 88.383465,202.70748 -162.54356,50.748013 -180.27161,59.156625 M -287.18864,-63.962559 C -658.84289,-33.224647 -131.365,-163.14839 72.844068,211.22782 82.170514,228.32598 -154.93607,55.600396 -173.29807,62.440712 M -269.30453,-69.33638 c -372.70615,-1.434446 163.56925,-85.2835 335.238281,304.89577 C 73.774059,253.3793 -147.72368,61.049896 -166.58809,66.275206 m -84.3375,-139.529475 C -621.99624,-106.79341 -80.753466,-144.08145 56.971381,259.22339 63.26142,277.64276 -140.9486,67.05061 -160.18167,70.628347 m -72.0034,-146.294288 C -598.97579,-140.96307 -56.585118,-131.60192 46.043249,282.00722 50.730395,300.89719 -134.65265,73.556708 -154.11963,75.468219 M -213.23181,-76.530169 C -573.16859,-172.97546 -33.404027,-117.25487 33.261097,303.71302 36.305763,322.93908 -128.8773,80.522556 -148.44358,80.762465 M -194.22633,-75.819576 C -544.82594,-202.56434 -11.390118,-101.12116 18.755613,324.16551 20.132399,343.58881 -123.66379,87.902823 -143.19568,86.478055 M -175.33533,-73.523688 C -514.21628,-229.51008 9.2734071,-83.290613 2.6676067,343.21693 2.3659106,362.69599 -119.05319,95.652549 -138.41839,92.581139 M -156.72561,-69.649857 C -481.60829,-253.64212 28.403296,-63.862402 -14.861955,360.74855 -16.837928,380.14099 -115.08658,103.72716 -134.15419,99.036998 M -138.55806,-64.22195 C -447.25432,-274.8354 45.819422,-42.944429 -33.701767,376.66854 -37.333588,395.83271 -111.80519,112.08245 -130.44524,105.81011 m 9.46285,-163.0871 C -411.37601,-293.00111 61.34754,-20.651528 -53.738685,390.90649 -58.994799,409.70278 -109.25047,120.6745 -127.33321,112.86432 M -104.1333,-48.860119 C -374.1536,-308.0728 74.821325,2.8971883 -74.884039,403.40522 -81.721247,421.69685 -107.46421,129.45955 -124.85898,120.16307 M -88.128267,-39.018341 C -335.71989,-319.98914 86.083527,27.581624 -97.077196,414.11059 -105.44235,431.76378 -106.48856,138.39392 -123.06264,127.66971 M -73.067254,-27.793472 C -296.15944,-328.67453 94.986137,53.28442 -120.28607,422.95999 c -9.83171,16.88348 13.91998,-275.52622 -1.69733,-287.61214"
       style="fill:none;stroke:#550000;stroke-width:1.87854;stroke-linecap:round;stroke-linejoin:round;stroke-miterlimit:4;stroke-dasharray:none;paint-order:stroke fill markers"
       id="circle1715" />
  </g>
</svg>
